<svg xmlns="http://www.w3.org/2000/svg" viewBox="0 0 800 300" width="800" height="300">
<style>
  text { font-family: -apple-system, BlinkMacSystemFont, "Segoe UI", Roboto, sans-serif; }
  .title { font-size: 14px; font-weight: 600; fill: #1a1a1a; }
  .axis { font-size: 10px; fill: #666; }
  .grid { stroke: #e0e0e0; stroke-width: 0.5; }
  .line-min { stroke: #2196F3; stroke-width: 2; fill: none; }
  .line-max { stroke: #FF5722; stroke-width: 2; fill: none; }
  .area { fill: rgba(33,150,243,0.08); }
  .dot { fill: white; stroke-width: 1.5; }
</style>
<rect width="800" height="300" fill="#fafafa" rx="8"/>
<text x="400" y="22" text-anchor="middle" class="title">Chayote</text>
<line x1="70" y1="40.0" x2="770" y2="40.0" class="grid"/>
<text x="62" y="43.0" text-anchor="end" class="axis">6,300</text>
<line x1="70" y1="80.0" x2="770" y2="80.0" class="grid"/>
<text x="62" y="83.0" text-anchor="end" class="axis">5,325</text>
<line x1="70" y1="120.0" x2="770" y2="120.0" class="grid"/>
<text x="62" y="123.0" text-anchor="end" class="axis">4,350</text>
<line x1="70" y1="160.0" x2="770" y2="160.0" class="grid"/>
<text x="62" y="163.0" text-anchor="end" class="axis">3,375</text>
<line x1="70" y1="200.0" x2="770" y2="200.0" class="grid"/>
<text x="62" y="203.0" text-anchor="end" class="axis">2,400</text>
<line x1="70" y1="240.0" x2="770" y2="240.0" class="grid"/>
<text x="62" y="243.0" text-anchor="end" class="axis">1,425</text>
<path d="M 70.0,175.3846153846154 L 350.0,175.3846153846154 L 630.0,236.92307692307693 L 630.0,93.33333333333334 L 350.0,52.30769230769232 L 70.0,52.30769230769232 Z" class="area"/>
<path d="M 70.0,175.3846153846154 L 350.0,175.3846153846154 L 630.0,236.92307692307693" class="line-min"/>
<circle cx="70.0" cy="175.3846153846154" r="3" class="dot" stroke="#2196F3"/>
<circle cx="350.0" cy="175.3846153846154" r="3" class="dot" stroke="#2196F3"/>
<circle cx="630.0" cy="236.92307692307693" r="3" class="dot" stroke="#2196F3"/>
<path d="M 70.0,52.30769230769232 L 350.0,52.30769230769232 L 630.0,93.33333333333334" class="line-max"/>
<circle cx="70.0" cy="52.30769230769232" r="3" class="dot" stroke="#FF5722"/>
<circle cx="350.0" cy="52.30769230769232" r="3" class="dot" stroke="#FF5722"/>
<circle cx="630.0" cy="93.33333333333334" r="3" class="dot" stroke="#FF5722"/>
<text x="70.0" y="290" text-anchor="middle" class="axis" transform="rotate(-30, 70.0, 290)">2026-06-30</text>
<text x="210.0" y="290" text-anchor="middle" class="axis" transform="rotate(-30, 210.0, 290)">2026-06-30</text>
<text x="350.0" y="290" text-anchor="middle" class="axis" transform="rotate(-30, 350.0, 290)">2026-06-30</text>
<text x="490.0" y="290" text-anchor="middle" class="axis" transform="rotate(-30, 490.0, 290)">2026-06-30</text>
<text x="630.0" y="290" text-anchor="middle" class="axis" transform="rotate(-30, 630.0, 290)">2026-07-06</text>
<text x="770.0" y="290" text-anchor="middle" class="axis" transform="rotate(-30, 770.0, 290)">2026-07-06</text>
<line x1="70" y1="265" x2="90" y2="265" class="line-min"/>
<text x="95" y="269" class="axis">Min</text>
<line x1="140" y1="265" x2="160" y2="265" class="line-max"/>
<text x="165" y="269" class="axis">Max</text>
</svg>