<svg xmlns="http://www.w3.org/2000/svg" viewBox="0 0 960 540" width="960" height="540" role="img" aria-labelledby="chart-title chart-desc">
<title>White Cow Pea (New) prices — Mandalay market</title>
<desc id="chart-desc">Available minimum, maximum, and modal White Cow Pea (New) prices in Mandalay, Mandalay, from 8 Jul to 9 Oct 2026. Source wisarra; market-chain level unspecified.</desc>
<style>
text { font-family: Inter, -apple-system, BlinkMacSystemFont, "Segoe UI", sans-serif; fill: #17212B; }
.chart-title { font-size: 24px; font-weight: 650; }
.subtitle { font-size: 14px; fill: #52606D; }
.axis { font-size: 12px; fill: #697586; }
.grid { stroke: #E5EAF0; stroke-width: 1; }
.range { fill: #D9F3F0; fill-opacity: 0.72; }
.maximum { stroke: #0F766E; stroke-width: 3; fill: none; }
.minimum { stroke: #64748B; stroke-width: 2.25; stroke-dasharray: 7 5; fill: none; }
.modal { stroke: #2563EB; stroke-width: 3; fill: none; }
.point-max { fill: #FFFFFF; stroke: #0F766E; stroke-width: 2.5; }
.point-min { fill: #FFFFFF; stroke: #64748B; stroke-width: 2; }
.point-modal { fill: #FFFFFF; stroke: #2563EB; stroke-width: 2.5; }
.direct-label { font-size: 13px; font-weight: 650; }
.maximum-label { fill: #0F766E; }
.minimum-label { fill: #52606D; }
.combined-label { fill: #334155; }
.modal-label { fill: #1D4ED8; }
.source { font-size: 11px; fill: #7C8798; }
</style>
<rect width="960" height="540" fill="#FFFFFF"/>
<text id="chart-title" x="100" y="48" class="chart-title">White Cow Pea (New) prices — Mandalay market</text>
<text x="100" y="76" class="subtitle">Mandalay · wisarra · tier unspecified · MMK per 60 viss · 10 weekly observations · 8 Jul–9 Oct 2026</text>
<line x1="100" y1="130.0" x2="810" y2="130.0" class="grid"/>
<text x="85" y="134.0" text-anchor="end" class="axis">205,000</text>
<line x1="100" y1="210.0" x2="810" y2="210.0" class="grid"/>
<text x="85" y="214.0" text-anchor="end" class="axis">193,750</text>
<line x1="100" y1="290.0" x2="810" y2="290.0" class="grid"/>
<text x="85" y="294.0" text-anchor="end" class="axis">182,500</text>
<line x1="100" y1="370.0" x2="810" y2="370.0" class="grid"/>
<text x="85" y="374.0" text-anchor="end" class="axis">171,250</text>
<line x1="100" y1="450.0" x2="810" y2="450.0" class="grid"/>
<text x="85" y="454.0" text-anchor="end" class="axis">160,000</text>
<polygon points="336.7,272.2 382.5,272.2 435.9,272.2 489.4,272.2 527.5,272.2 588.6,272.2 642.0,414.4 695.5,414.4 695.5,378.9 642.0,378.9 588.6,165.6 527.5,165.6 489.4,165.6 435.9,165.6 382.5,165.6 336.7,165.6" class="range"/>
<path d="M 336.7 272.2 L 382.5 272.2 L 435.9 272.2 L 489.4 272.2 L 527.5 272.2 L 588.6 272.2 L 642.0 414.4 L 695.5 414.4" class="minimum"/>
<path d="M 336.7 165.6 L 382.5 165.6 L 435.9 165.6 L 489.4 165.6 L 527.5 165.6 L 588.6 165.6 L 642.0 378.9 L 695.5 378.9" class="maximum"/>
<circle cx="336.7" cy="272.2" r="4" class="point-min"/>
<circle cx="382.5" cy="272.2" r="4" class="point-min"/>
<circle cx="435.9" cy="272.2" r="4" class="point-min"/>
<circle cx="489.4" cy="272.2" r="4" class="point-min"/>
<circle cx="527.5" cy="272.2" r="4" class="point-min"/>
<circle cx="588.6" cy="272.2" r="4" class="point-min"/>
<circle cx="642.0" cy="414.4" r="4" class="point-min"/>
<circle cx="695.5" cy="414.4" r="4" class="point-min"/>
<circle cx="810.0" cy="307.8" r="4" class="point-min"/>
<circle cx="100.0" cy="343.3" r="4.5" class="point-max"/>
<circle cx="336.7" cy="165.6" r="4.5" class="point-max"/>
<circle cx="382.5" cy="165.6" r="4.5" class="point-max"/>
<circle cx="435.9" cy="165.6" r="4.5" class="point-max"/>
<circle cx="489.4" cy="165.6" r="4.5" class="point-max"/>
<circle cx="527.5" cy="165.6" r="4.5" class="point-max"/>
<circle cx="588.6" cy="165.6" r="4.5" class="point-max"/>
<circle cx="642.0" cy="378.9" r="4.5" class="point-max"/>
<circle cx="695.5" cy="378.9" r="4.5" class="point-max"/>
<circle cx="810.0" cy="236.7" r="4.5" class="point-max"/>
<text x="100.0" y="484" text-anchor="middle" class="axis">8 Jul</text>
<text x="336.7" y="484" text-anchor="middle" class="axis">8 Aug</text>
<text x="382.5" y="484" text-anchor="middle" class="axis">14 Aug</text>
<text x="435.9" y="484" text-anchor="middle" class="axis">21 Aug</text>
<text x="489.4" y="484" text-anchor="middle" class="axis">28 Aug</text>
<text x="527.5" y="484" text-anchor="middle" class="axis">2 Sep</text>
<text x="588.6" y="484" text-anchor="middle" class="axis">10 Sep</text>
<text x="642.0" y="484" text-anchor="middle" class="axis">17 Sep</text>
<text x="695.5" y="484" text-anchor="middle" class="axis">24 Sep</text>
<text x="810.0" y="484" text-anchor="middle" class="axis">9 Oct</text>
<text x="825.0" y="240.7" class="direct-label maximum-label">Maximum · 190,000</text>
<text x="825.0" y="311.8" class="direct-label minimum-label">Minimum · 180,000</text>
<text x="28" y="290.0" text-anchor="middle" class="axis" transform="rotate(-90 28 290.0)">Price (MMK)</text>
<text x="100" y="512" class="source">Source: wisarra.com · Last observation 9 Oct 2026</text>
</svg>