<svg xmlns="http://www.w3.org/2000/svg" viewBox="0 0 960 540" width="960" height="540" role="img" aria-labelledby="chart-title chart-desc">
<title>Onion (New) (John Gyi) prices — Pakokku market</title>
<desc id="chart-desc">Available minimum, maximum, and modal Onion (New) (John Gyi) prices in Pakokku, Magway, from 30 Jun to 10 Sep 2026. Source wisarra; market-chain level unspecified.</desc>
<style>
text { font-family: Inter, -apple-system, BlinkMacSystemFont, "Segoe UI", sans-serif; fill: #17212B; }
.chart-title { font-size: 24px; font-weight: 650; }
.subtitle { font-size: 14px; fill: #52606D; }
.axis { font-size: 12px; fill: #697586; }
.grid { stroke: #E5EAF0; stroke-width: 1; }
.range { fill: #D9F3F0; fill-opacity: 0.72; }
.maximum { stroke: #0F766E; stroke-width: 3; fill: none; }
.minimum { stroke: #64748B; stroke-width: 2.25; stroke-dasharray: 7 5; fill: none; }
.modal { stroke: #2563EB; stroke-width: 3; fill: none; }
.point-max { fill: #FFFFFF; stroke: #0F766E; stroke-width: 2.5; }
.point-min { fill: #FFFFFF; stroke: #64748B; stroke-width: 2; }
.point-modal { fill: #FFFFFF; stroke: #2563EB; stroke-width: 2.5; }
.direct-label { font-size: 13px; font-weight: 650; }
.maximum-label { fill: #0F766E; }
.minimum-label { fill: #52606D; }
.combined-label { fill: #334155; }
.modal-label { fill: #1D4ED8; }
.source { font-size: 11px; fill: #7C8798; }
</style>
<rect width="960" height="540" fill="#FFFFFF"/>
<text id="chart-title" x="100" y="48" class="chart-title">Onion (New) (John Gyi) prices — Pakokku market</text>
<text x="100" y="76" class="subtitle">Magway · wisarra · tier unspecified · MMK per 1 viss · 8 weekly observations · 30 Jun–10 Sep 2026</text>
<line x1="100" y1="130.0" x2="810" y2="130.0" class="grid"/>
<text x="85" y="134.0" text-anchor="end" class="axis">84,870</text>
<line x1="100" y1="210.0" x2="810" y2="210.0" class="grid"/>
<text x="85" y="214.0" text-anchor="end" class="axis">81,385</text>
<line x1="100" y1="290.0" x2="810" y2="290.0" class="grid"/>
<text x="85" y="294.0" text-anchor="end" class="axis">77,900</text>
<line x1="100" y1="370.0" x2="810" y2="370.0" class="grid"/>
<text x="85" y="374.0" text-anchor="end" class="axis">74,415</text>
<line x1="100" y1="450.0" x2="810" y2="450.0" class="grid"/>
<text x="85" y="454.0" text-anchor="end" class="axis">70,930</text>
<path d="M 100.0 391.0 L 175.9 402.5" class="maximum"/>
<path d="M 483.0 322.1 L 542.5 310.7 L 611.8 177.5 L 681.2 253.3 L 730.7 253.3 L 810.0 230.3" class="maximum"/>
<circle cx="100.0" cy="391.0" r="4.5" class="point-max"/>
<circle cx="175.9" cy="402.5" r="4.5" class="point-max"/>
<circle cx="483.0" cy="322.1" r="4.5" class="point-max"/>
<circle cx="542.5" cy="310.7" r="4.5" class="point-max"/>
<circle cx="611.8" cy="177.5" r="4.5" class="point-max"/>
<circle cx="681.2" cy="253.3" r="4.5" class="point-max"/>
<circle cx="730.7" cy="253.3" r="4.5" class="point-max"/>
<circle cx="810.0" cy="230.3" r="4.5" class="point-max"/>
<text x="100.0" y="484" text-anchor="middle" class="axis">30 Jun</text>
<text x="175.9" y="484" text-anchor="middle" class="axis">8 Jul</text>
<text x="483.0" y="484" text-anchor="middle" class="axis">8 Aug</text>
<text x="542.5" y="484" text-anchor="middle" class="axis">14 Aug</text>
<text x="611.8" y="484" text-anchor="middle" class="axis">21 Aug</text>
<text x="681.2" y="484" text-anchor="middle" class="axis">28 Aug</text>
<text x="730.7" y="484" text-anchor="middle" class="axis">2 Sep</text>
<text x="810.0" y="484" text-anchor="middle" class="axis">10 Sep</text>
<text x="825.0" y="234.3" class="direct-label maximum-label">Maximum · 80,500</text>
<text x="28" y="290.0" text-anchor="middle" class="axis" transform="rotate(-90 28 290.0)">Price (MMK)</text>
<text x="100" y="512" class="source">Source: wisarra.com · Last observation 10 Sep 2026</text>
</svg>