<svg xmlns="http://www.w3.org/2000/svg" viewBox="0 0 960 540" width="960" height="540" role="img" aria-labelledby="chart-title chart-desc">
<title>Lablab Bean (La) prices — Mandalay market</title>
<desc id="chart-desc">Available minimum, maximum, and modal Lablab Bean (La) prices in Mandalay, Mandalay, from 30 Jun to 14 Sep 2026. Source wisarra; market-chain level unspecified.</desc>
<style>
text { font-family: Inter, -apple-system, BlinkMacSystemFont, "Segoe UI", sans-serif; fill: #17212B; }
.chart-title { font-size: 24px; font-weight: 650; }
.subtitle { font-size: 14px; fill: #52606D; }
.axis { font-size: 12px; fill: #697586; }
.grid { stroke: #E5EAF0; stroke-width: 1; }
.range { fill: #D9F3F0; fill-opacity: 0.72; }
.maximum { stroke: #0F766E; stroke-width: 3; fill: none; }
.minimum { stroke: #64748B; stroke-width: 2.25; stroke-dasharray: 7 5; fill: none; }
.modal { stroke: #2563EB; stroke-width: 3; fill: none; }
.point-max { fill: #FFFFFF; stroke: #0F766E; stroke-width: 2.5; }
.point-min { fill: #FFFFFF; stroke: #64748B; stroke-width: 2; }
.point-modal { fill: #FFFFFF; stroke: #2563EB; stroke-width: 2.5; }
.direct-label { font-size: 13px; font-weight: 650; }
.maximum-label { fill: #0F766E; }
.minimum-label { fill: #52606D; }
.combined-label { fill: #334155; }
.modal-label { fill: #1D4ED8; }
.source { font-size: 11px; fill: #7C8798; }
</style>
<rect width="960" height="540" fill="#FFFFFF"/>
<text id="chart-title" x="100" y="48" class="chart-title">Lablab Bean (La) prices — Mandalay market</text>
<text x="100" y="76" class="subtitle">Mandalay · wisarra · tier unspecified · MMK per 55.25 viss · 9 weekly observations · 30 Jun–14 Sep 2026</text>
<line x1="100" y1="130.0" x2="810" y2="130.0" class="grid"/>
<text x="85" y="134.0" text-anchor="end" class="axis">814,000</text>
<line x1="100" y1="210.0" x2="810" y2="210.0" class="grid"/>
<text x="85" y="214.0" text-anchor="end" class="axis">752,000</text>
<line x1="100" y1="290.0" x2="810" y2="290.0" class="grid"/>
<text x="85" y="294.0" text-anchor="end" class="axis">690,000</text>
<line x1="100" y1="370.0" x2="810" y2="370.0" class="grid"/>
<text x="85" y="374.0" text-anchor="end" class="axis">628,000</text>
<line x1="100" y1="450.0" x2="810" y2="450.0" class="grid"/>
<text x="85" y="454.0" text-anchor="end" class="axis">566,000</text>
<polygon points="100.0,419.0 171.9,186.8 171.9,173.9 100.0,406.1" class="range"/>
<polygon points="462.8,186.8 519.1,186.8 584.8,186.8 650.5,186.8 697.4,186.8 772.5,186.8 810.0,186.8 810.0,161.0 772.5,161.0 697.4,161.0 650.5,173.9 584.8,173.9 519.1,173.9 462.8,173.9" class="range"/>
<path d="M 100.0 419.0 L 171.9 186.8" class="minimum"/>
<path d="M 462.8 186.8 L 519.1 186.8 L 584.8 186.8 L 650.5 186.8 L 697.4 186.8 L 772.5 186.8 L 810.0 186.8" class="minimum"/>
<path d="M 100.0 406.1 L 171.9 173.9" class="maximum"/>
<path d="M 462.8 173.9 L 519.1 173.9 L 584.8 173.9 L 650.5 173.9 L 697.4 161.0 L 772.5 161.0 L 810.0 161.0" class="maximum"/>
<circle cx="100.0" cy="419.0" r="4" class="point-min"/>
<circle cx="171.9" cy="186.8" r="4" class="point-min"/>
<circle cx="462.8" cy="186.8" r="4" class="point-min"/>
<circle cx="519.1" cy="186.8" r="4" class="point-min"/>
<circle cx="584.8" cy="186.8" r="4" class="point-min"/>
<circle cx="650.5" cy="186.8" r="4" class="point-min"/>
<circle cx="697.4" cy="186.8" r="4" class="point-min"/>
<circle cx="772.5" cy="186.8" r="4" class="point-min"/>
<circle cx="810.0" cy="186.8" r="4" class="point-min"/>
<circle cx="100.0" cy="406.1" r="4.5" class="point-max"/>
<circle cx="171.9" cy="173.9" r="4.5" class="point-max"/>
<circle cx="462.8" cy="173.9" r="4.5" class="point-max"/>
<circle cx="519.1" cy="173.9" r="4.5" class="point-max"/>
<circle cx="584.8" cy="173.9" r="4.5" class="point-max"/>
<circle cx="650.5" cy="173.9" r="4.5" class="point-max"/>
<circle cx="697.4" cy="161.0" r="4.5" class="point-max"/>
<circle cx="772.5" cy="161.0" r="4.5" class="point-max"/>
<circle cx="810.0" cy="161.0" r="4.5" class="point-max"/>
<text x="100.0" y="484" text-anchor="middle" class="axis">30 Jun</text>
<text x="171.9" y="484" text-anchor="middle" class="axis">8 Jul</text>
<text x="462.8" y="484" text-anchor="middle" class="axis">8 Aug</text>
<text x="519.1" y="484" text-anchor="middle" class="axis">14 Aug</text>
<text x="584.8" y="484" text-anchor="middle" class="axis">21 Aug</text>
<text x="650.5" y="484" text-anchor="middle" class="axis">28 Aug</text>
<text x="697.4" y="484" text-anchor="middle" class="axis">2 Sep</text>
<text x="772.5" y="484" text-anchor="middle" class="axis">10 Sep</text>
<text x="810.0" y="484" text-anchor="middle" class="axis">14 Sep</text>
<text x="825.0" y="165.0" class="direct-label maximum-label">Maximum · 790,000</text>
<text x="825.0" y="190.8" class="direct-label minimum-label">Minimum · 770,000</text>
<text x="28" y="290.0" text-anchor="middle" class="axis" transform="rotate(-90 28 290.0)">Price (MMK)</text>
<text x="100" y="512" class="source">Source: wisarra.com · Last observation 14 Sep 2026</text>
</svg>