<svg xmlns="http://www.w3.org/2000/svg" viewBox="0 0 800 300" width="800" height="300">
<style>
  text { font-family: -apple-system, BlinkMacSystemFont, "Segoe UI", Roboto, sans-serif; }
  .title { font-size: 14px; font-weight: 600; fill: #1a1a1a; }
  .axis { font-size: 10px; fill: #666; }
  .grid { stroke: #e0e0e0; stroke-width: 0.5; }
  .line-min { stroke: #2196F3; stroke-width: 2; fill: none; }
  .line-max { stroke: #FF5722; stroke-width: 2; fill: none; }
  .area { fill: rgba(33,150,243,0.08); }
  .dot { fill: white; stroke-width: 1.5; }
</style>
<rect width="800" height="300" fill="#fafafa" rx="8"/>
<text x="400" y="22" text-anchor="middle" class="title">Paddy (Paw San) (Rainy 2022)</text>
<line x1="70" y1="40.0" x2="770" y2="40.0" class="grid"/>
<text x="62" y="43.0" text-anchor="end" class="axis">1,575</text>
<line x1="70" y1="80.0" x2="770" y2="80.0" class="grid"/>
<text x="62" y="83.0" text-anchor="end" class="axis">1,384</text>
<line x1="70" y1="120.0" x2="770" y2="120.0" class="grid"/>
<text x="62" y="123.0" text-anchor="end" class="axis">1,192</text>
<line x1="70" y1="160.0" x2="770" y2="160.0" class="grid"/>
<text x="62" y="163.0" text-anchor="end" class="axis">1,000</text>
<line x1="70" y1="200.0" x2="770" y2="200.0" class="grid"/>
<text x="62" y="203.0" text-anchor="end" class="axis">809</text>
<line x1="70" y1="240.0" x2="770" y2="240.0" class="grid"/>
<text x="62" y="243.0" text-anchor="end" class="axis">618</text>
<path d="M 70.0,222.76762402088772 L 210.0,233.21148825065274 L 350.0,222.76762402088772 L 490.0,233.21148825065274 L 630.0,160.10443864229765 L 770.0,233.21148825065274 L 770.0,213.36814621409923 L 630.0,55.665796344647504 L 490.0,213.36814621409923 L 350.0,160.10443864229765 L 210.0,213.36814621409923 L 70.0,160.10443864229765 Z" class="area"/>
<path d="M 70.0,222.76762402088772 L 210.0,233.21148825065274 L 350.0,222.76762402088772 L 490.0,233.21148825065274 L 630.0,160.10443864229765 L 770.0,233.21148825065274" class="line-min"/>
<circle cx="70.0" cy="222.76762402088772" r="3" class="dot" stroke="#2196F3"/>
<circle cx="210.0" cy="233.21148825065274" r="3" class="dot" stroke="#2196F3"/>
<circle cx="350.0" cy="222.76762402088772" r="3" class="dot" stroke="#2196F3"/>
<circle cx="490.0" cy="233.21148825065274" r="3" class="dot" stroke="#2196F3"/>
<circle cx="630.0" cy="160.10443864229765" r="3" class="dot" stroke="#2196F3"/>
<circle cx="770.0" cy="233.21148825065274" r="3" class="dot" stroke="#2196F3"/>
<path d="M 70.0,160.10443864229765 L 210.0,213.36814621409923 L 350.0,160.10443864229765 L 490.0,213.36814621409923 L 630.0,55.665796344647504 L 770.0,213.36814621409923" class="line-max"/>
<circle cx="70.0" cy="160.10443864229765" r="3" class="dot" stroke="#FF5722"/>
<circle cx="210.0" cy="213.36814621409923" r="3" class="dot" stroke="#FF5722"/>
<circle cx="350.0" cy="160.10443864229765" r="3" class="dot" stroke="#FF5722"/>
<circle cx="490.0" cy="213.36814621409923" r="3" class="dot" stroke="#FF5722"/>
<circle cx="630.0" cy="55.665796344647504" r="3" class="dot" stroke="#FF5722"/>
<circle cx="770.0" cy="213.36814621409923" r="3" class="dot" stroke="#FF5722"/>
<text x="70.0" y="290" text-anchor="middle" class="axis" transform="rotate(-30, 70.0, 290)">2026-06-30</text>
<text x="210.0" y="290" text-anchor="middle" class="axis" transform="rotate(-30, 210.0, 290)">2026-06-30</text>
<text x="350.0" y="290" text-anchor="middle" class="axis" transform="rotate(-30, 350.0, 290)">2026-06-30</text>
<text x="490.0" y="290" text-anchor="middle" class="axis" transform="rotate(-30, 490.0, 290)">2026-06-30</text>
<text x="630.0" y="290" text-anchor="middle" class="axis" transform="rotate(-30, 630.0, 290)">2026-07-06</text>
<text x="770.0" y="290" text-anchor="middle" class="axis" transform="rotate(-30, 770.0, 290)">2026-07-06</text>
<line x1="70" y1="265" x2="90" y2="265" class="line-min"/>
<text x="95" y="269" class="axis">Min</text>
<line x1="140" y1="265" x2="160" y2="265" class="line-max"/>
<text x="165" y="269" class="axis">Max</text>
</svg>