<svg xmlns="http://www.w3.org/2000/svg" viewBox="0 0 800 300" width="800" height="300">
<style>
  text { font-family: -apple-system, BlinkMacSystemFont, "Segoe UI", Roboto, sans-serif; }
  .title { font-size: 14px; font-weight: 600; fill: #1a1a1a; }
  .axis { font-size: 10px; fill: #666; }
  .grid { stroke: #e0e0e0; stroke-width: 0.5; }
  .line-min { stroke: #2196F3; stroke-width: 2; fill: none; }
  .line-max { stroke: #FF5722; stroke-width: 2; fill: none; }
  .area { fill: rgba(33,150,243,0.08); }
  .dot { fill: white; stroke-width: 1.5; }
</style>
<rect width="800" height="300" fill="#fafafa" rx="8"/>
<text x="400" y="22" text-anchor="middle" class="title">Mung Bean</text>
<line x1="70" y1="40.0" x2="770" y2="40.0" class="grid"/>
<text x="62" y="43.0" text-anchor="end" class="axis">4,935</text>
<line x1="70" y1="80.0" x2="770" y2="80.0" class="grid"/>
<text x="62" y="83.0" text-anchor="end" class="axis">4,803</text>
<line x1="70" y1="120.0" x2="770" y2="120.0" class="grid"/>
<text x="62" y="123.0" text-anchor="end" class="axis">4,671</text>
<line x1="70" y1="160.0" x2="770" y2="160.0" class="grid"/>
<text x="62" y="163.0" text-anchor="end" class="axis">4,539</text>
<line x1="70" y1="200.0" x2="770" y2="200.0" class="grid"/>
<text x="62" y="203.0" text-anchor="end" class="axis">4,407</text>
<line x1="70" y1="240.0" x2="770" y2="240.0" class="grid"/>
<text x="62" y="243.0" text-anchor="end" class="axis">4,275</text>
<path d="M 210.0,111.21212121212122 L 490.0,111.21212121212122 L 770.0,171.8181818181818" class="line-max"/>
<circle cx="210.0" cy="111.21212121212122" r="3" class="dot" stroke="#FF5722"/>
<circle cx="490.0" cy="111.21212121212122" r="3" class="dot" stroke="#FF5722"/>
<circle cx="770.0" cy="171.8181818181818" r="3" class="dot" stroke="#FF5722"/>
<text x="70.0" y="290" text-anchor="middle" class="axis" transform="rotate(-30, 70.0, 290)">2026-06-30</text>
<text x="210.0" y="290" text-anchor="middle" class="axis" transform="rotate(-30, 210.0, 290)">2026-06-30</text>
<text x="350.0" y="290" text-anchor="middle" class="axis" transform="rotate(-30, 350.0, 290)">2026-06-30</text>
<text x="490.0" y="290" text-anchor="middle" class="axis" transform="rotate(-30, 490.0, 290)">2026-06-30</text>
<text x="630.0" y="290" text-anchor="middle" class="axis" transform="rotate(-30, 630.0, 290)">2026-07-06</text>
<text x="770.0" y="290" text-anchor="middle" class="axis" transform="rotate(-30, 770.0, 290)">2026-07-06</text>
<line x1="70" y1="265" x2="90" y2="265" class="line-min"/>
<text x="95" y="269" class="axis">Min</text>
<line x1="140" y1="265" x2="160" y2="265" class="line-max"/>
<text x="165" y="269" class="axis">Max</text>
</svg>